<svg xmlns="http://www.w3.org/2000/svg" xmlns:xlink="http://www.w3.org/1999/xlink" width="5000" height="5000" viewBox="0 0 5000 5000">
  <defs>
    <clipPath id="clip-API_Integration">
      <rect width="5000" height="5000"/>
    </clipPath>
  </defs>
  <g id="API_Integration" data-name="API Integration" clip-path="url(#clip-API_Integration)">
    <rect width="5000" height="5000" fill="#fff"/>
    <g id="noun_API_719165" transform="translate(-311.114 922.262)">
      <g id="Group_5" data-name="Group 5" transform="translate(1044.68 193.236)">
        <path id="Path_45" data-name="Path 45" d="M3538.467,707.451V15.2H5.6v2769H3538.467ZM3458.9,2704.635H85.169V707.451H3458.9Zm0-2076.753H85.169V94.769H3458.9Z" transform="translate(-5.6 -15.2)"/>
        <path id="Path_46" data-name="Path 46" d="M184.652,369.7c95.483,0,175.052-79.569,175.052-175.052S280.135,19.6,184.652,19.6,9.6,99.169,9.6,194.652,89.169,369.7,184.652,369.7Zm0-270.535c51.72,0,95.483,43.763,95.483,95.483s-43.763,95.483-95.483,95.483-95.483-43.763-95.483-95.483S132.932,99.169,184.652,99.169Z" transform="translate(149.538 155.452)"/>
        <path id="Path_47" data-name="Path 47" d="M195.052,369.7c95.483,0,175.052-79.569,175.052-175.052S290.535,19.6,195.052,19.6,20,99.169,20,194.652,95.591,369.7,195.052,369.7Zm0-270.535c51.72,0,95.483,43.763,95.483,95.483s-43.763,95.483-95.483,95.483-95.483-43.763-95.483-95.483S139.354,99.169,195.052,99.169Z" transform="translate(552.897 155.452)"/>
        <path id="Path_48" data-name="Path 48" d="M205.352,369.7c95.483,0,175.052-79.569,175.052-175.052S300.835,19.6,205.352,19.6,30.3,99.169,30.3,194.652,109.869,369.7,205.352,369.7Zm0-270.535c51.72,0,95.483,43.763,95.483,95.483s-43.763,95.483-95.483,95.483-95.483-43.763-95.483-95.483S153.632,99.169,205.352,99.169Z" transform="translate(952.378 155.452)"/>
        <path id="Path_49" data-name="Path 49" d="M56.184,550.664h370C446.073,789.371,645,976.358,891.66,976.358h175.052c23.871,0,39.784-15.914,39.784-39.785V85.184c0-23.871-15.914-39.784-39.784-39.784H891.66c-242.686,0-441.608,186.987-465.479,425.695h-370c-23.871,0-39.785,15.914-39.785,39.784S32.314,550.664,56.184,550.664ZM891.66,124.969h135.268v771.82H891.66c-210.858,0-385.91-175.052-385.91-385.91S676.823,124.969,891.66,124.969Z" transform="translate(413.273 1156.093)"/>
        <path id="Path_50" data-name="Path 50" d="M89.384,686.031c-23.871,0-39.784,15.914-39.784,39.784S65.514,765.6,89.384,765.6H316.156V936.674c0,23.871,15.914,39.785,39.785,39.785H530.993c242.686,0,441.609-186.987,465.479-425.695h370c23.871,0,39.784-15.914,39.784-39.784s-15.914-39.785-39.784-39.785h-370C976.58,232.487,777.657,45.5,530.993,45.5H355.941c-23.871,0-39.785,15.914-39.785,39.785V256.358H89.384c-23.871,0-39.784,15.914-39.784,39.785s15.914,39.784,39.784,39.784H316.156V690.009H89.384Zm302.363-564.94H527.015c210.858,0,385.91,175.052,385.91,385.91s-175.052,385.91-385.91,385.91H391.747Z" transform="translate(1700.92 1159.971)"/>
      </g>
    </g>
  </g>
</svg>
