<svg xmlns="http://www.w3.org/2000/svg" xmlns:xlink="http://www.w3.org/1999/xlink" width="5000" height="5000" viewBox="0 0 5000 5000">
  <defs>
    <clipPath id="clip-App_development">
      <rect width="5000" height="5000"/>
    </clipPath>
  </defs>
  <g id="App_development" data-name="App development" clip-path="url(#clip-App_development)">
    <rect width="5000" height="5000" fill="#fff"/>
    <g id="noun_mobile_app_1002800" data-name="noun_mobile app_1002800" transform="translate(1158.888 621.147)">
      <path id="Path_21" data-name="Path 21" d="M379.522,59.079c-16.048-20.06-48.143-24.071-68.2-8.024L50.548,271.708C38.512,279.732,34.5,295.78,34.5,307.815c0,16.048,8.024,28.083,16.048,36.107L311.32,564.576c8.024,8.024,20.06,12.036,32.1,12.036,16.048,0,28.083-8.024,36.107-16.048,16.048-20.059,16.048-52.154-8.024-68.2L154.856,311.827,371.5,131.293C395.569,111.233,395.569,79.138,379.522,59.079Z" transform="translate(690.788 1480.77)"/>
      <path id="Path_22" data-name="Path 22" d="M396.479,272.009,135.707,51.355c-20.059-16.048-52.154-12.036-68.2,8.024s-16.048,52.154,8.024,68.2L292.171,308.115,75.529,488.65c-20.059,16.048-24.071,48.143-8.024,68.2,8.024,12.036,24.071,16.048,36.107,16.048s24.071-4.012,32.095-12.036L396.479,340.211c12.036-8.024,16.048-24.071,16.048-36.107S408.515,284.044,396.479,272.009Z" transform="translate(1544.408 1492.506)"/>
      <path id="Path_23" data-name="Path 23" d="M383.833,37.935c-24.071-8.024-52.155,8.024-60.178,32.095L46.835,956.655c-8.024,24.071,8.024,52.154,32.1,60.178,4.012,0,8.024,4.012,16.048,4.012,20.059,0,40.119-12.036,48.143-36.107L415.928,102.125C423.952,74.042,411.916,45.959,383.833,37.935Z" transform="translate(1091.676 1273.237)"/>
      <path id="Path_24" data-name="Path 24" d="M1857.528,3.3H256.789C132.421,3.3,24.1,107.609,24.1,235.989V3521.717c0,124.368,104.309,232.689,232.689,232.689h1600.74c124.368,0,232.689-104.309,232.689-232.689V235.989C2090.217,111.621,1981.9,3.3,1857.528,3.3Zm104.309,3518.417c0,60.178-44.13,104.309-104.309,104.309H256.789c-60.178,0-104.309-44.131-104.309-104.309V3164.659H1965.849v357.058Zm0-481.426H148.468V468.678H1961.837Zm0-2699.994H148.468V235.989c0-60.178,44.131-104.309,104.309-104.309h573.7c4.012,24.071,24.071,40.119,48.143,40.119h353.045c24.071,0,44.131-20.059,48.143-40.119h573.7c60.178,0,104.309,44.131,104.309,104.309V340.3Z" transform="translate(283.953 0)"/>
      <circle id="Ellipse_4" data-name="Ellipse 4" cx="108.321" cy="108.321" r="108.321" transform="translate(1230.785 3289.028)"/>
    </g>
  </g>
</svg>
