<svg xmlns="http://www.w3.org/2000/svg" xmlns:xlink="http://www.w3.org/1999/xlink" width="5000" height="5000" viewBox="0 0 5000 5000">
  <defs>
    <linearGradient id="linear-gradient" x1="0.5" x2="0.5" y2="1" gradientUnits="objectBoundingBox">
      <stop offset="0" stop-color="#0689fe"/>
      <stop offset="1" stop-color="#5746ee"/>
    </linearGradient>
    <clipPath id="clip-Brand_Media_design">
      <rect width="5000" height="5000"/>
    </clipPath>
  </defs>
  <g id="Brand_Media_design" data-name="Brand &amp; Media design" clip-path="url(#clip-Brand_Media_design)">
    <rect width="5000" height="5000" fill="#fff"/>
    <g id="noun_multimedia_3886221" transform="translate(3557 2250.825)">
      <g id="Group_3" data-name="Group 3" transform="translate(-2720.046 -1123.488)">
        <path id="Path_16" data-name="Path 16" d="M3003.877,353.675h0c25.985-72.758,10.394-155.911-46.773-213.078l-77.955-77.955c-77.956-77.955-207.881-77.955-285.836,0l-296.23,296.23H322.215C145.517,358.872,0,504.388,0,681.087v1746.2c0,176.7,145.517,322.215,322.215,322.215H3003.877c176.7,0,322.215-145.516,322.215-322.215V675.89C3326.093,499.191,3180.576,353.675,3003.877,353.675Zm-343-223.472c36.379-36.379,103.94-36.379,140.32,0l77.955,77.955c36.379,36.379,36.379,103.94,0,140.319l-763.962,769.159-83.152,15.591s0-5.2-5.2-5.2l-140.32-145.516s-5.2,0-5.2-5.2l15.591-83.152ZM1803.366,1408.67c20.788,10.394,20.788,31.182,20.788,41.576s0,25.985-20.788,41.576l-332.609,192.29c-20.788,10.394-36.379,5.2-46.773,0-5.2-5.2-20.788-15.591-20.788-41.576V1252.759c0-25.985,15.591-36.379,20.788-41.576,5.2,0,10.394-5.2,20.788-5.2,5.2,0,15.591,0,20.788,5.2Zm51.97-311.821,57.167,57.167-72.758,15.591Zm1366.816,1325.24c0,119.531-98.743,218.275-218.275,218.275H322.215c-119.531,0-218.275-98.744-218.275-218.275V675.89c0-119.531,98.743-218.275,218.275-218.275h1865.73L1813.76,831.8c-5.2,5.2-10.394,15.591-15.591,25.985l-72.758,368.988v10.394l-197.487-114.335a155.435,155.435,0,0,0-150.714,0c-46.773,25.985-72.758,77.955-72.758,129.926v389.777c0,51.97,25.985,103.94,72.758,129.925,20.788,15.591,46.773,20.788,72.758,20.788s51.97-5.2,72.758-20.788l332.609-192.29c46.773-25.985,72.759-72.758,72.759-129.925s-25.985-103.94-72.759-129.926h0l-51.97-31.182,348.2-67.561c10.394,0,20.788-5.2,25.985-15.591l743.174-743.174h83.152c119.531,0,218.275,98.743,218.275,218.275Z" transform="translate(0 -4.175)" fill="url(#linear-gradient)"/>
        <circle id="Ellipse_1" data-name="Ellipse 1" cx="77.955" cy="77.955" r="77.955" transform="translate(259.851 557.38)" fill="url(#linear-gradient)"/>
        <circle id="Ellipse_2" data-name="Ellipse 2" cx="77.955" cy="77.955" r="77.955" transform="translate(467.732 557.38)" fill="url(#linear-gradient)"/>
        <circle id="Ellipse_3" data-name="Ellipse 3" cx="77.955" cy="77.955" r="77.955" transform="translate(675.613 557.38)" fill="url(#linear-gradient)"/>
        <path id="Path_17" data-name="Path 17" d="M58.97,35.9C27.788,35.9,7,56.688,7,87.87s20.788,51.97,51.97,51.97H266.851c31.182,0,51.97-20.788,51.97-51.97S298.033,35.9,266.851,35.9Z" transform="translate(356.791 1612.854)" fill="url(#linear-gradient)"/>
        <path id="Path_18" data-name="Path 18" d="M422.762,43.9H58.97C27.788,43.9,7,64.688,7,95.87s20.788,51.97,51.97,51.97H422.762c31.182,0,51.97-20.788,51.97-51.97S453.944,43.9,422.762,43.9Z" transform="translate(356.791 2020.616)" fill="url(#linear-gradient)"/>
        <path id="Path_19" data-name="Path 19" d="M578.672,40H58.97C27.788,40,7,60.788,7,91.97s20.788,51.97,51.97,51.97h519.7c31.182,0,51.97-20.788,51.97-51.97S609.854,40,578.672,40Z" transform="translate(356.791 1821.832)" fill="url(#linear-gradient)"/>
        <path id="Path_20" data-name="Path 20" d="M90.77,772.562c15.591,0,25.985-5.2,36.379-15.591L787.171,96.949c20.788-20.788,20.788-51.97,0-72.758s-51.97-20.788-72.758,0L54.391,684.212C33.6,705,33.6,736.183,54.391,756.971,64.785,767.365,80.376,772.562,90.77,772.562Z" transform="translate(1977.643 221.368)" fill="url(#linear-gradient)"/>
      </g>
    </g>
  </g>
</svg>
