<svg xmlns="http://www.w3.org/2000/svg" xmlns:xlink="http://www.w3.org/1999/xlink" width="5000" height="5000" viewBox="0 0 5000 5000">
  <defs>
    <linearGradient id="linear-gradient" x1="0.724" y1="0.077" x2="0.28" y2="1" gradientUnits="objectBoundingBox">
      <stop offset="0" stop-color="#0689fe"/>
      <stop offset="1" stop-color="#5746ee"/>
    </linearGradient>
    <clipPath id="clip-Cloud_services">
      <rect width="5000" height="5000"/>
    </clipPath>
  </defs>
  <g id="Cloud_services" data-name="Cloud services" clip-path="url(#clip-Cloud_services)">
    <rect width="5000" height="5000" fill="#fff"/>
    <g id="noun_cloud_service_4285798" data-name="noun_cloud service_4285798" transform="translate(38.804 733.237)">
      <path id="Path_3" data-name="Path 3" d="M3696.264,983.975c-100.5,0-201,19.913-296.173,58.2C3339.419,466.015,2850.479,15.529,2258.352,15.529c-591.962,0-1080.628,450.486-1141.245,1026.759-95.232-38.4-195.84-58.313-296.392-58.313-447.578,0-811.719,364.086-811.719,811.664S373.136,2607.3,820.714,2607.3h165.01c42.569,665.2,597.009,1193.469,1272.792,1193.469,340.223,0,660.424-132.809,901.63-374.016,221.623-221.622,351.469-510.06,371.107-819.454h165.065c447.523,0,811.61-364.141,811.61-811.664S4143.788,983.975,3696.264,983.975ZM1582.733,2607.413c3.785,116.571,15.579,228.37,34.4,333.641-240.658-81.847-400.182-205.933-449.279-333.641Zm165.12,0h428.433v428.543c-138.624-4.718-266.989-20.791-382.3-46.19C1768.589,2874.457,1752.571,2746.147,1747.853,2607.413Zm593,1008.437V3201.021c116.516-3.785,228.26-15.579,333.531-34.4C2592.542,3407.174,2468.51,3566.7,2340.857,3615.85Zm0-579.894V2607.413h428.433c-4.718,138.624-20.791,266.989-46.189,382.353C2607.792,3015.166,2479.481,3031.184,2340.857,3035.956ZM2674.5,1884.014c-105.271-18.816-217.069-30.61-333.64-34.4v-415.1C2468.565,1483.667,2592.651,1643.3,2674.5,1884.014Zm-14.647-389.924c288.054,112.567,517.356,341.924,629.759,630.088-112.567-82.724-259.693-150.692-431.231-198.528C2810.543,1754.058,2742.575,1606.766,2659.851,1494.09Zm-318.994,520.7c138.678,4.772,266.989,20.791,382.354,46.189,25.344,115.255,41.362,243.456,46.08,381.915H2340.857Zm593.5,592.62h414.774c-49.152,127.653-208.622,251.739-449.169,333.641C2918.776,2835.728,2930.625,2723.984,2934.355,2607.413Zm0-164.571c-3.73-116.407-15.579-228.041-34.34-333.2,240.384,81.792,399.8,205.714,449,333.2ZM2176.286,1434.461v415.158c-116.571,3.785-228.37,15.634-333.7,34.4C1924.492,1643.246,2048.579,1483.612,2176.286,1434.461Zm0,580.332v428.1H1747.853c4.718-138.459,20.681-266.714,46.025-381.914C1909.242,2035.584,2037.608,2019.511,2176.286,2014.793Zm-593.553,428.049H1167.85c49.207-127.543,208.731-251.465,449.169-333.256C1598.258,2214.8,1586.464,2326.436,1582.733,2442.842Zm76.032,682.2c47.835,171.538,115.8,318.774,198.527,431.286-288.054-112.512-517.356-341.759-629.868-629.758C1340.046,3009.241,1487.227,3077.209,1658.765,3125.044Zm517.521,76.032V3615.9c-127.652-49.152-251.684-208.621-333.586-449.169C1947.971,3185.442,2059.715,3197.236,2176.286,3201.076ZM2659.8,3556.22c82.669-112.567,150.692-259.693,198.473-431.176,171.483-47.835,318.664-115.8,431.176-198.472C3176.988,3214.516,2947.8,3443.709,2659.8,3556.22ZM1658.655,1925.705c-171.593,47.835-318.829,115.8-431.4,198.528,112.512-288.219,341.814-517.686,630.033-630.2C1774.568,1606.657,1706.491,1754,1658.655,1925.705Zm2037.609,517.027H3531.529c-.219-3.456-.932-6.693-1.152-10.149-2.688-36.534-6.583-72.74-12.288-108.4-.713-4.553-1.591-9-2.414-13.495-6.144-36.315-13.6-72.137-22.766-107.355-.878-3.292-1.865-6.473-2.8-9.71-9.765-36.205-20.846-71.972-33.573-106.806-.658-1.646-1.316-3.292-1.975-4.882-12.727-34.45-27.044-68.078-42.624-101.047-1.152-2.359-2.14-4.773-3.292-7.186-15.689-32.585-32.914-64.182-51.236-95.177-2.03-3.456-3.95-7.022-6.034-10.478-18.048-29.9-37.467-58.862-57.819-87.113-2.962-4.059-5.705-8.173-8.667-12.233-20.3-27.428-41.8-53.869-64.128-79.543-3.676-4.279-7.351-8.612-11.081-12.837q-33.572-37.6-70.053-72.3c-4.388-4.169-8.722-8.393-13.166-12.562q-36.535-34.067-75.757-65.115c-4.937-3.895-9.819-7.79-14.812-11.575-26.276-20.3-53.486-39.607-81.353-57.874-5.266-3.456-10.533-6.857-15.909-10.2q-42.377-26.825-86.893-50.359c-5.431-2.852-10.917-5.65-16.4-8.393-30.171-15.36-60.891-29.677-92.434-42.624-5.376-2.195-10.752-4.224-16.183-6.364-32.146-12.727-64.786-24.357-98.084-34.45-4.992-1.536-10.039-2.8-14.976-4.279-34.176-9.929-68.9-18.652-104.118-25.728-4.169-.823-8.394-1.481-12.562-2.249-36.425-6.912-73.289-12.562-110.7-16.293-3.017-.274-5.979-.384-8.941-.658-38.345-3.566-77.129-5.6-116.407-5.705-.823,0-1.536-.11-2.359-.11-.768,0-1.481.11-2.249.11-39.387.055-78.336,2.14-116.791,5.705-2.853.274-5.705.384-8.558.658-37.687,3.73-74.77,9.381-111.415,16.347-3.895.768-7.845,1.317-11.685,2.085-35.657,7.131-70.711,16.018-105.215,26.057-4.553,1.317-9.216,2.523-13.769,3.895-33.792,10.258-66.926,22.053-99.456,34.944-4.882,1.92-9.765,3.785-14.592,5.76q-48.055,19.831-94.134,43.447c-4.828,2.468-9.655,4.882-14.483,7.406q-45.586,24.027-88.923,51.566c-4.553,2.908-9.161,5.815-13.659,8.777q-43.035,28.059-83.6,59.41c-4.169,3.236-8.229,6.473-12.4,9.709q-40.4,32.091-78.171,67.145c-3.566,3.346-7.077,6.748-10.642,10.149q-37.687,35.959-72.521,74.825c-2.908,3.237-5.705,6.528-8.5,9.819-23.259,26.661-45.586,54.144-66.6,82.67-2.084,2.8-4.059,5.705-6.089,8.558q-32.009,44.105-60.343,90.843c-1.207,2.029-2.3,4.06-3.511,6.034-19.255,32.366-37.248,65.554-53.65,99.675-.274.658-.549,1.262-.878,1.92a1264.349,1264.349,0,0,0-81.079,220.251c-.384,1.481-.878,3.017-1.262,4.5-9.655,36.809-17.5,74.276-23.863,112.347-.439,2.8-1.042,5.595-1.481,8.338-5.979,37.193-10.094,74.88-12.782,113.06-.165,2.414-.658,4.773-.823,7.186H820.715c-356.845,0-647.148-290.3-647.148-647.093s290.3-647.094,647.148-647.094c115.255,0,226.395,31.6,330.294,93.916a82.3,82.3,0,0,0,124.635-70.546l-.329-8.557c0-542.152,441-983.257,983.037-983.257,541.329,0,981.941,439.459,983.532,980.35-.329,3.62-.659,8.942-.659,11.465a82.3,82.3,0,0,0,124.635,70.546c103.954-62.318,215.149-93.916,330.4-93.916,356.79,0,647.039,290.3,647.039,647.094S4053.054,2442.732,3696.264,2442.732Z" transform="translate(207.456 0)" fill="url(#linear-gradient)"/>
    </g>
  </g>
</svg>
