<svg xmlns="http://www.w3.org/2000/svg" xmlns:xlink="http://www.w3.org/1999/xlink" width="5000" height="5000" viewBox="0 0 5000 5000">
  <defs>
    <clipPath id="clip-CMS">
      <rect width="5000" height="5000"/>
    </clipPath>
  </defs>
  <g id="CMS" clip-path="url(#clip-CMS)">
    <rect width="5000" height="5000" fill="#fff"/>
    <g id="noun_CMS_2347710" transform="translate(661.37 883.212)">
      <rect id="Rectangle_1" data-name="Rectangle 1" width="1380.986" height="117.723" transform="translate(343.634 2303.607)"/>
      <rect id="Rectangle_2" data-name="Rectangle 2" width="1380.986" height="114.328" transform="translate(343.634 2653.381)"/>
      <rect id="Rectangle_3" data-name="Rectangle 3" width="803.689" height="116.591" transform="translate(1953.276 1040.344)"/>
      <rect id="Rectangle_4" data-name="Rectangle 4" width="575.034" height="116.591" transform="translate(1953.276 1386.722)"/>
      <path id="Path_38" data-name="Path 38" d="M107.96,276.678l345.889,345.89L683.676,392.74,338.936,48Z" transform="translate(2993.569 1109.135)"/>
      <path id="Path_39" data-name="Path 39" d="M203.3,87.33,72.01,566.519l477.465-133.3Z" transform="translate(1996.734 2199.691)"/>
      <path id="Path_40" data-name="Path 40" d="M1390.961,44H12V1078.221H1390.961ZM1156.825,158.913,701.481,490.151,246.136,158.913ZM126.913,214.359,603.8,561.111,126.913,907.862ZM246.136,963.307,701.481,632.069l455.344,331.238Zm1029.912-55.446L799.157,561.111l476.891-346.751Z" transform="translate(332.755 998.221)"/>
      <rect id="Rectangle_5" data-name="Rectangle 5" width="1043.127" height="489.244" transform="translate(2280.313 2206.688) rotate(-45)"/>
      <path id="Path_41" data-name="Path 41" d="M3332.49,2873.366c0,112.9-120.372,237.3-229.827,237.3H344.74c-109.455,0-229.827-124.106-229.827-237.3V582.567H3332.49v459.654H3447.4V349.293C3447.4,178.646,3271.873,8,3102.663,8H344.74C172.37,8,0,174.337,0,352.74V2873.366c0,176.1,172.37,352.209,344.74,352.209H3102.663c172.37,0,344.74-176.1,344.74-352.209V1888.846L3332.49,2003.759Zm-177.254-2649.9a57.457,57.457,0,1,1-57.457,57.457A57.457,57.457,0,0,1,3155.236,223.463Zm-228.1,0a57.808,57.808,0,1,0,.287,0Zm-226.667,0a57.457,57.457,0,1,1-57.457,57.457A57.457,57.457,0,0,1,2700.466,223.463Z" transform="translate(0.015)"/>
    </g>
  </g>
</svg>
