<svg xmlns="http://www.w3.org/2000/svg" xmlns:xlink="http://www.w3.org/1999/xlink" width="5000" height="5000" viewBox="0 0 5000 5000">
  <defs>
    <clipPath id="clip-Ecommerce">
      <rect width="5000" height="5000"/>
    </clipPath>
  </defs>
  <g id="Ecommerce" clip-path="url(#clip-Ecommerce)">
    <rect width="5000" height="5000" fill="#fff"/>
    <g id="noun_ecommerce_3001111" transform="translate(591.812 608.813)">
      <path id="Path_4" data-name="Path 4" d="M419.429-.719C187.89-.44.244,187.172,0,418.71V2598.318c.244,231.538,187.89,419.185,419.429,419.428H1845.714v640.415H1170.837a62.466,62.466,0,1,0,0,124.931h1517.41a62.466,62.466,0,0,0,0-124.931H1970.663V3017.746H3396.948c231.539-.238,419.185-187.891,419.429-419.429V418.71C3816.134,187.171,3628.487-.44,3396.948-.719H419.429Zm0,124.932H3396.948c162.586.191,294.323,131.946,294.5,294.5V2220.647H124.929V418.71c.174-162.551,131.946-294.288,294.5-294.5ZM2670.08,364.931c-181.619,0-328.865,147.245-328.865,328.865v60.092h-65.678a142.373,142.373,0,0,0-141.215,120.2L1983.9,1723.306a63.785,63.785,0,0,0-.977,10.907c.176,123.474,100.22,223.519,223.694,223.694h926.966c123.473-.191,223.526-100.22,223.666-223.694a63.875,63.875,0,0,0-.95-10.907L3205.877,874.087a142.422,142.422,0,0,0-141.257-120.2h-65.636V693.8c0-181.62-147.253-328.865-328.907-328.865Zm0,124.932c112.667,0,203.975,91.3,203.975,203.933v60.092H2466.161V693.8C2466.161,581.164,2557.448,489.863,2670.08,489.863Zm-1653.1,59.787A492.416,492.416,0,0,0,620.706,738.486c-150.176,191.833-137.477,464.638,29.815,641.725a494.459,494.459,0,0,0,357.969,154.3c230.284,0,429.819-159.628,480.4-384.334,50.547-224.671-61.351-454.4-269.429-553.091a491.291,491.291,0,0,0-202.481-47.44Zm-4.315,124.863a366.334,366.334,0,0,1,171.38,44.619c157.74,85.755,230.454,272.963,171.925,442.695-58.495,169.767-231.085,272.393-408.173,242.728S640.97,1221.6,640.97,1042.074a367.615,367.615,0,0,1,371.7-367.562ZM2275.535,878.836h65.678V992.163a62.473,62.473,0,0,0,124.946,0V878.836h407.894V992.163a62.466,62.466,0,1,0,124.932,0V878.836h65.636a18.039,18.039,0,0,1,17.917,15.292c.072.429.138.843.21,1.229L3232.2,1739.033a98.9,98.9,0,0,1-98.622,93.944H2206.615a98.845,98.845,0,0,1-98.608-93.944l149.441-843.676a12.031,12.031,0,0,0,.167-1.229,18.066,18.066,0,0,1,17.917-15.292ZM1180.57,882.075a62.234,62.234,0,0,0-39.745,13.769L947.8,1052.924l-63.583-74.462a62.454,62.454,0,1,0-94.991,81.109L892.413,1180.4a62.475,62.475,0,0,0,86.933,7.876l240.326-195.526a62.457,62.457,0,0,0-39.1-110.674ZM578.489,1641.318a62.466,62.466,0,0,0,0,124.932h847.8a62.466,62.466,0,0,0,0-124.932h-847.8Zm0,267.726a62.466,62.466,0,0,0,0,124.932h499.757a62.466,62.466,0,0,0,0-124.932H578.489Zm-453.56,436.55H3691.444v252.727c-.176,162.586-131.911,294.322-294.5,294.5H419.428c-162.586-.19-294.322-131.946-294.5-294.5V2345.594Z" transform="translate(0 0)"/>
    </g>
  </g>
</svg>
