<svg xmlns="http://www.w3.org/2000/svg" xmlns:xlink="http://www.w3.org/1999/xlink" width="5000" height="5000" viewBox="0 0 5000 5000">
  <defs>
    <clipPath id="clip-Payment_Integration">
      <rect width="5000" height="5000"/>
    </clipPath>
  </defs>
  <g id="Payment_Integration" data-name="Payment Integration" clip-path="url(#clip-Payment_Integration)">
    <rect width="5000" height="5000" fill="#fff"/>
    <g id="noun_payment_4293197" transform="translate(783.134 1089.347)">
      <g id="Group_1" data-name="Group 1" transform="translate(204.599 -252.842)">
        <path id="Path_1" data-name="Path 1" d="M308.454,2C142.2,2,6,138.2,6,304.453V3026.535c0,166.251,136.2,302.454,302.454,302.454H1971.948c166.251,0,302.454-136.2,302.454-302.454V2724.082a75.614,75.614,0,0,0-151.227,0v302.453c0,85.088-66.138,151.227-151.227,151.227H308.454c-85.088,0-151.227-66.139-151.227-151.227V304.453c0-85.088,66.139-151.227,151.227-151.227H610.907V228.84c0,124.361,102.479,226.84,226.84,226.84h604.907c124.361,0,226.84-102.479,226.84-226.84V153.227h302.453c85.088,0,151.227,66.139,151.227,151.227v453.68a75.614,75.614,0,0,0,151.227,0V304.453C2274.4,138.2,2138.2,2,1971.948,2Zm453.68,151.227h756.134V228.84c0,43.2-32.415,75.613-75.613,75.613H837.747c-43.2,0-75.613-32.415-75.613-75.613Z" transform="translate(-6 -2)"/>
        <path id="Path_2" data-name="Path 2" d="M95.613,12A75.614,75.614,0,0,0,20,87.613V1902.334a75.613,75.613,0,0,0,151.227,0V1751.108H1759.107c124.361,0,226.84-102.479,226.84-226.84V465.68c0-124.361-102.479-226.84-226.84-226.84H171.227V87.613A75.614,75.614,0,0,0,95.613,12Zm75.613,378.067H1759.107c43.2,0,75.614,32.416,75.614,75.613V616.907H171.227Zm0,378.067H1834.721v226.84H171.227Zm0,378.067H1834.721v378.067c0,43.2-32.415,75.613-75.614,75.613H171.227Z" transform="translate(1038.587 744.134)"/>
      </g>
    </g>
  </g>
</svg>
