<svg xmlns="http://www.w3.org/2000/svg" xmlns:xlink="http://www.w3.org/1999/xlink" width="5000" height="5000" viewBox="0 0 5000 5000">
  <defs>
    <linearGradient id="linear-gradient" x1="1" y1="0.091" x2="0.327" y2="1" gradientUnits="objectBoundingBox">
      <stop offset="0" stop-color="#0689fe"/>
      <stop offset="1" stop-color="#5746ee"/>
    </linearGradient>
    <clipPath id="clip-Responsive_web_design">
      <rect width="5000" height="5000"/>
    </clipPath>
  </defs>
  <g id="Responsive_web_design" data-name="Responsive web design" clip-path="url(#clip-Responsive_web_design)">
    <rect width="5000" height="5000" fill="#fff"/>
    <g id="noun_responsive_263940" transform="translate(708.284 1003.903)">
      <g id="Group_8" data-name="Group 8" transform="translate(0 3)">
        <g id="Group_7" data-name="Group 7">
          <g id="Group_6" data-name="Group 6">
            <path id="Path_52" data-name="Path 52" d="M2866.746,238.9V178.387C2866.746,80.618,2786.082,0,2686.583,0H180.158C79.869,0,0,79.867,0,178.387V2091.124c0,97.768,80.66,178.383,180.158,178.383h984.457l-83.825,335.3c-3.182,12.721-16.026,23.042-29.541,23.042H896.417c-33.293,0-60.283,27.7-60.283,59.724a59.383,59.383,0,0,0,59.517,59.724h657.169V2627.85H1199.255l89.586-358.343h263.98V2150.059H180.353a60.734,60.734,0,0,1-60.905-60.7v-297.64H1552.821V1672.268H119.448V180.151a60.584,60.584,0,0,1,60.905-60.7H2686.391a60.736,60.736,0,0,1,60.906,60.7V238.9ZM1433.373,2090.335a119.448,119.448,0,1,0-119.448-119.448A119.446,119.446,0,0,0,1433.373,2090.335Z" fill-rule="evenodd" fill="url(#linear-gradient)"/>
            <path id="Path_53" data-name="Path 53" d="M1686.268,480.791V182.817A179.085,179.085,0,0,0,1506.476,3H193.793A179.287,179.287,0,0,0,14,182.817V2331.586A179.083,179.083,0,0,0,193.793,2511.4H611.239V2391.955H192.969c-32.872,0-59.521-26.852-59.521-59.27V2033.611H611.239V1914.164H133.448V361.343H1566.821V480.791ZM133.448,181.714a59.151,59.151,0,0,1,59.521-59.266H1507.3c32.872,0,59.521,26.848,59.521,59.266V241.9H133.448Z" transform="translate(1658.268 355.343)" fill-rule="evenodd" fill="url(#linear-gradient)"/>
            <path id="Path_54" data-name="Path 54" d="M199.793,8h834.892a179.085,179.085,0,0,1,179.793,179.817V1858.795a179.288,179.288,0,0,1-179.793,179.817H199.793A179.083,179.083,0,0,1,20,1858.795V187.817A179.287,179.287,0,0,1,199.793,8ZM139.448,1441.373H1095.03V366.343H139.448Zm0-1254.659a59.151,59.151,0,0,1,59.521-59.266h836.54c32.872,0,59.521,26.848,59.521,59.266V246.9H139.448Zm0,1673.179c0,32.418,26.649,59.27,59.521,59.27h836.54a59.149,59.149,0,0,0,59.521-59.27V1560.82H139.448Z" transform="translate(2368.954 947.582)" fill-rule="evenodd" fill="url(#linear-gradient)"/>
            <circle id="Ellipse_5" data-name="Ellipse 5" cx="119.448" cy="119.448" r="119.448" transform="translate(2866.745 2568.126)" fill="url(#linear-gradient)"/>
          </g>
        </g>
      </g>
    </g>
  </g>
</svg>
