<svg xmlns="http://www.w3.org/2000/svg" xmlns:xlink="http://www.w3.org/1999/xlink" width="5000" height="5000" viewBox="0 0 5000 5000">
  <defs>
    <clipPath id="clip-SEO">
      <rect width="5000" height="5000"/>
    </clipPath>
  </defs>
  <g id="SEO" clip-path="url(#clip-SEO)">
    <rect width="5000" height="5000" fill="#fff"/>
    <g id="noun_SEO_3202402" transform="translate(2337 2431.7)">
      <g id="Group_4" data-name="Group 4" transform="translate(-1838.643 -1354.294)">
        <path id="Path_42" data-name="Path 42" d="M582.087,703.415c0,80.087,67.441,147.528,147.528,147.528S877.143,783.5,877.143,703.415C877.143,332.487,573.657,29,202.728,29,122.641,29,55.2,96.442,55.2,176.528s67.441,147.528,147.528,147.528C413.483,324.057,582.087,492.66,582.087,703.415Z" transform="translate(2166.155 506.317)"/>
        <path id="Path_43" data-name="Path 43" d="M2454.448,2608.583l-640.694-640.694c160.174-206.54,257.121-463.66,257.121-741.857C2070.875,560.047,1527.128,16.3,861.143,16.3c-295.057,0-569.038,109.592-779.792,286.626,8.43,8.43,16.86,16.86,29.506,25.29L245.739,463.1c16.86,16.86,29.506,33.721,42.151,50.581C443.849,387.228,641.958,311.357,861.143,311.357c505.811,0,914.675,408.864,914.675,914.675,0,501.6-408.864,914.675-914.675,914.675-231.83,0-442.585-88.517-606.973-231.83-4.215,4.215-4.215,8.43-8.43,12.645L110.857,2056.405c-21.076,21.075-46.366,42.151-71.657,54.8,214.97,202.325,505.811,324.562,821.943,324.562,278.2,0,539.532-96.947,741.857-257.121l640.694,640.694c29.505,29.506,67.441,42.151,105.377,42.151s75.872-12.646,105.377-42.151C2509.245,2760.326,2509.245,2663.379,2454.448,2608.583Z" transform="translate(1507.74 -16.3)"/>
        <path id="Path_44" data-name="Path 44" d="M1595.806,1380.36l-139.1-172.819c-4.215-4.215-4.215-12.645-4.215-21.075A514.194,514.194,0,0,0,1482,1114.809c4.215-8.43,8.43-12.645,16.86-12.645l223.4-21.076c33.721-4.215,63.226-33.721,63.226-67.442V823.968c0-33.721-25.291-67.441-63.226-67.441l-223.4-33.721c-8.43,0-12.645-4.215-16.86-12.645-8.43-25.291-16.86-50.581-29.506-71.657-4.215-8.43-4.215-16.861,4.215-21.076l139.1-172.819c21.076-29.506,21.076-67.442-4.215-92.732L1456.707,216.994c-25.29-25.291-67.441-25.291-92.732-4.215l-172.819,139.1c-4.215,4.215-16.86,4.215-21.076,4.215a514.206,514.206,0,0,0-71.657-29.506c-8.43-4.215-12.645-8.43-12.645-16.86L1064.7,86.326c-4.215-33.721-33.721-63.226-67.442-63.226H807.583c-33.721,0-67.441,25.291-67.441,63.226l-21.076,223.4c0,8.43-4.215,12.645-12.645,16.86-25.291,8.43-50.581,16.86-71.657,29.506-8.43,4.215-16.86,4.215-21.076-4.215L440.87,212.779c-29.506-21.076-67.442-21.076-92.732,4.215L213.254,351.877c-42.151,21.076-46.366,63.226-21.075,88.517l139.1,172.819c4.215,4.215,4.215,16.86,4.215,21.076a514.179,514.179,0,0,0-29.506,71.657c-4.215,8.43-8.43,12.645-16.86,12.645l-223.4,25.291C32.006,748.1,2.5,777.6,2.5,811.323V1001c0,37.936,25.291,71.656,63.226,71.656l223.4,21.076c8.43,0,12.645,4.215,16.86,12.645,8.43,25.291,16.86,50.581,29.506,71.657,4.215,8.43,4.215,16.86-4.215,21.075l-139.1,181.249c-21.075,29.506-21.075,67.442,4.215,92.732l134.883,134.883c25.291,25.29,67.442,25.29,92.732,4.215l172.819-139.1c4.215-4.215,16.86-4.215,21.076-4.215a514.194,514.194,0,0,0,71.657,29.506c8.43,4.215,12.645,8.43,12.645,16.86l21.075,223.4c4.215,33.721,33.721,63.226,67.442,63.226H980.4c33.721,0,67.441-25.291,67.441-63.226l21.076-223.4c0-8.43,4.215-12.645,12.645-16.86,25.291-8.43,50.581-16.86,71.657-29.506,8.43-4.215,16.86-4.215,21.076,4.215l172.819,139.1c29.506,21.075,67.441,21.075,92.732-4.215l134.883-134.883C1612.666,1447.8,1616.881,1405.651,1595.806,1380.36ZM891.885,1237.047c-181.249,0-324.562-147.528-324.562-324.562,0-181.249,147.528-324.562,324.562-324.562,181.249,0,324.562,147.528,324.562,324.562C1220.662,1089.519,1073.134,1237.047,891.885,1237.047Z" transform="translate(-2.5 263.526)"/>
      </g>
    </g>
  </g>
</svg>
