<svg xmlns="http://www.w3.org/2000/svg" xmlns:xlink="http://www.w3.org/1999/xlink" width="5000" height="5000" viewBox="0 0 5000 5000">
  <defs>
    <linearGradient id="linear-gradient" x1="1" y1="0.064" x2="0.113" y2="1" gradientUnits="objectBoundingBox">
      <stop offset="0" stop-color="#0689fe"/>
      <stop offset="1" stop-color="#5746ee"/>
    </linearGradient>
    <clipPath id="clip-web_mobile_apps">
      <rect width="5000" height="5000"/>
    </clipPath>
  </defs>
  <g id="web_mobile_apps" data-name="web &amp; mobile apps" clip-path="url(#clip-web_mobile_apps)">
    <rect width="5000" height="5000" fill="#fff"/>
    <g id="noun_ui_3377327" transform="translate(603.971 1237)">
      <path id="Path_25" data-name="Path 25" d="M3061.053,16H178.5A159.089,159.089,0,0,0,20,175.385V430.756a59.251,59.251,0,1,0,118.5,0V175.385a40.885,40.885,0,0,1,40-40.883H3061.053a40.883,40.883,0,0,1,39.994,40.883V2226.651a40.885,40.885,0,0,1-40,40.883H790.262a59.251,59.251,0,1,0,0,118.5h766.707v355.505H790.262a59.251,59.251,0,0,0,0,118.5H2449.287a59.251,59.251,0,0,0,0-118.5H1675.471V2386.036H3061.053a159.089,159.089,0,0,0,158.5-159.385V175.385A159.089,159.089,0,0,0,3061.053,16Z" transform="translate(572.509 0)" fill="url(#linear-gradient)"/>
      <path id="Path_26" data-name="Path 26" d="M153.4,278.86a59.251,59.251,0,0,0,83.544,0L380.032,135.769a59.251,59.251,0,0,0-83.544-83.84L195.169,153.248l-52.141-52.141a59.251,59.251,0,0,0-83.544,83.84Z" transform="translate(1261.515 591.242)" fill="url(#linear-gradient)"/>
      <path id="Path_27" data-name="Path 27" d="M119.251,158.5H563.633a59.251,59.251,0,0,0,0-118.5H119.251a59.251,59.251,0,1,0,0,118.5Z" transform="translate(1717.527 687.011)" fill="url(#linear-gradient)"/>
      <path id="Path_28" data-name="Path 28" d="M119.251,174.5H474.756a59.251,59.251,0,1,0,0-118.5H119.251a59.251,59.251,0,1,0,0,118.5Z" transform="translate(1717.527 1145.018)" fill="url(#linear-gradient)"/>
      <path id="Path_29" data-name="Path 29" d="M119.251,190.5H593.258a59.251,59.251,0,1,0,0-118.5H119.251a59.251,59.251,0,1,0,0,118.5Z" transform="translate(1717.527 1603.025)" fill="url(#linear-gradient)"/>
      <path id="Path_30" data-name="Path 30" d="M59.484,200.947,153.4,294.86a59.251,59.251,0,0,0,83.544,0L380.032,151.769a59.251,59.251,0,0,0-83.544-83.84L195.169,169.248l-52.141-52.141a59.251,59.251,0,0,0-83.544,83.84Z" transform="translate(1261.515 1049.249)" fill="url(#linear-gradient)"/>
      <path id="Path_31" data-name="Path 31" d="M59.485,216.947,153.4,310.86a59.251,59.251,0,0,0,83.544,0L380.032,167.769a59.251,59.251,0,0,0-83.544-83.84L195.169,185.248l-52.141-52.141a59.251,59.251,0,0,0-83.544,83.84Z" transform="translate(1261.514 1507.256)" fill="url(#linear-gradient)"/>
      <path id="Path_32" data-name="Path 32" d="M1003.71,36h-822.4A181.308,181.308,0,0,0,0,217.308V1869.223a181.308,181.308,0,0,0,181.308,181.308h822.4a181.308,181.308,0,0,0,181.308-181.308V217.308A181.308,181.308,0,0,0,1003.71,36Zm62.806,1833.223a62.806,62.806,0,0,1-62.806,62.806h-822.4a62.805,62.805,0,0,1-62.806-62.806V217.308A62.806,62.806,0,0,1,181.308,154.5h822.4a62.806,62.806,0,0,1,62.806,62.806Z" transform="translate(0 572.509)" fill="url(#linear-gradient)"/>
      <path id="Path_33" data-name="Path 33" d="M170.232,372.775a59.251,59.251,0,0,0,83.84,0L468.56,157.99a59.251,59.251,0,0,0-83.544-83.544L212.3,247.163l-99.245-99.245a59.284,59.284,0,0,0-83.544,84.136Z" transform="translate(343.473 1265.219)" fill="url(#linear-gradient)"/>
      <path id="Path_34" data-name="Path 34" d="M659.76,76H67.251a59.251,59.251,0,1,0,0,118.5H659.76a59.251,59.251,0,1,0,0-118.5Z" transform="translate(229.004 1717.527)" fill="url(#linear-gradient)"/>
      <path id="Path_35" data-name="Path 35" d="M304.255,84h-237a59.251,59.251,0,1,0,0,118.5h237a59.251,59.251,0,1,0,0-118.5Z" transform="translate(229.004 1946.531)" fill="url(#linear-gradient)"/>
      <path id="Path_36" data-name="Path 36" d="M75.251,162.5h118.5a59.251,59.251,0,1,0,0-118.5H75.251a59.251,59.251,0,1,0,0,118.5Z" transform="translate(458.007 801.513)" fill="url(#linear-gradient)"/>
      <path id="Path_37" data-name="Path 37" d="M761.385,1163.767h-237a121.464,121.464,0,0,1-118.5-118.5V837.887H198.5A121.464,121.464,0,0,1,80,719.385v-237a121.761,121.761,0,0,1,118.5-118.5H405.88V156.5A121.761,121.761,0,0,1,524.382,38h237a121.761,121.761,0,0,1,118.5,118.5V363.88h207.378a121.76,121.76,0,0,1,118.5,118.5v237a121.761,121.761,0,0,1-118.5,118.5H879.887v207.378a121.465,121.465,0,0,1-118.5,118.5Zm0-385.131a59.251,59.251,0,0,1,59.251-59.251h266.629v-237H820.636a59.251,59.251,0,0,1-59.251-59.251V156.5h-237V423.131a59.251,59.251,0,0,1-59.251,59.251H198.5v237H465.131a59.251,59.251,0,0,1,59.251,59.251v266.629h237Z" transform="translate(2290.036 629.76)" fill="url(#linear-gradient)"/>
    </g>
  </g>
</svg>
