<svg xmlns="http://www.w3.org/2000/svg" xmlns:xlink="http://www.w3.org/1999/xlink" width="500" height="500" viewBox="0 0 500 500">
  <defs>
    <clipPath id="clip-fb">
      <rect width="500" height="500"/>
    </clipPath>
  </defs>
  <g id="fb" clip-path="url(#clip-fb)">
    <rect width="500" height="500" fill="#fff"/>
    <path id="Icon_metro-facebook" data-name="Icon metro-facebook" d="M419.245,1.928H85.895A83.333,83.333,0,0,0,2.571,85.271V418.586a83.332,83.332,0,0,0,83.324,83.342H252.571V283.178h-62.5v-62.5h62.5V173.8A78.125,78.125,0,0,1,330.7,95.678h78.125v62.5H330.7A15.625,15.625,0,0,0,315.071,173.8v46.875h85.938l-15.625,62.5H315.071v218.75H419.245a83.333,83.333,0,0,0,83.325-83.342V85.271A83.334,83.334,0,0,0,419.245,1.928Z" transform="translate(-2.571 -1.928)" fill="#fff"/>
  </g>
</svg>
