<svg xmlns="http://www.w3.org/2000/svg" xmlns:xlink="http://www.w3.org/1999/xlink" width="500" height="500" viewBox="0 0 500 500">
  <defs>
    <clipPath id="clip-Insta">
      <rect width="500" height="500"/>
    </clipPath>
  </defs>
  <g id="Insta" clip-path="url(#clip-Insta)">
    <rect width="500" height="500" fill="#fff"/>
    <g id="Icon_ionic-logo-instagram" data-name="Icon ionic-logo-instagram" transform="translate(-4.5 -4.5)">
      <path id="Path_1" data-name="Path 1" d="M358.667,46.167A104.473,104.473,0,0,1,462.833,150.333V358.667A104.473,104.473,0,0,1,358.667,462.833H150.333A104.473,104.473,0,0,1,46.167,358.667V150.333A104.473,104.473,0,0,1,150.333,46.167H358.667m0-41.667H150.333C70.125,4.5,4.5,70.125,4.5,150.333V358.667C4.5,438.875,70.125,504.5,150.333,504.5H358.667c80.208,0,145.833-65.625,145.833-145.833V150.333C504.5,70.125,438.875,4.5,358.667,4.5Z" fill="#fff"/>
      <path id="Path_2" data-name="Path 2" d="M54.875,71.5a31.25,31.25,0,1,1,31.25-31.25A31.175,31.175,0,0,1,54.875,71.5Z" transform="translate(335.042 78.833)" fill="#fff"/>
      <path id="Path_3" data-name="Path 3" d="M136.25,52.917A83.333,83.333,0,1,1,52.917,136.25,83.411,83.411,0,0,1,136.25,52.917m0-41.667a125,125,0,1,0,125,125,125.032,125.032,0,0,0-125-125Z" transform="translate(118.25 118.25)" fill="#fff"/>
    </g>
  </g>
</svg>
