<svg xmlns="http://www.w3.org/2000/svg" xmlns:xlink="http://www.w3.org/1999/xlink" width="500" height="500" viewBox="0 0 500 500">
  <defs>
    <clipPath id="clip-twitter">
      <rect width="500" height="500"/>
    </clipPath>
  </defs>
  <g id="twitter" clip-path="url(#clip-twitter)">
    <rect width="500" height="500" fill="#fff"/>
    <path id="Icon_awesome-twitter" data-name="Icon awesome-twitter" d="M448.605,104.586c.317,4.441.317,8.884.317,13.325,0,135.469-103.109,291.562-291.562,291.562A289.584,289.584,0,0,1,0,363.471a211.987,211.987,0,0,0,24.746,1.269,205.227,205.227,0,0,0,127.221-43.781,102.656,102.656,0,0,1-95.813-71.067,129.226,129.226,0,0,0,19.354,1.586,108.382,108.382,0,0,0,26.967-3.489A102.489,102.489,0,0,1,20.3,147.417v-1.269a103.2,103.2,0,0,0,46.32,13.007A102.628,102.628,0,0,1,34.9,22.1,291.281,291.281,0,0,0,246.192,129.332a115.682,115.682,0,0,1-2.538-23.477A102.573,102.573,0,0,1,421,35.741,201.754,201.754,0,0,0,486.041,11,102.2,102.2,0,0,1,440.99,67.467,205.432,205.432,0,0,0,500,51.6a220.28,220.28,0,0,1-51.395,52.982Z" transform="translate(0 43.573)" fill="#fff"/>
  </g>
</svg>
