<svg xmlns="http://www.w3.org/2000/svg" xmlns:xlink="http://www.w3.org/1999/xlink" width="500" height="500" viewBox="0 0 500 500">
  <defs>
    <clipPath id="clip-whatsapp">
      <rect width="500" height="500"/>
    </clipPath>
  </defs>
  <g id="whatsapp" clip-path="url(#clip-whatsapp)">
    <rect width="500" height="500" fill="#fff"/>
    <path id="Icon_awesome-whatsapp" data-name="Icon awesome-whatsapp" d="M414.575,73.105A239.808,239.808,0,0,0,243.695,2.25C110.474,2.25,2.068,110.656,2.068,243.877A241.887,241.887,0,0,0,34.285,364.69L0,489.857l128.106-33.632a240.891,240.891,0,0,0,115.48,29.387h.109c133.112,0,243.912-108.406,243.912-241.627,0-64.543-27.428-125.167-73.032-170.88Zm-170.88,371.8a200.476,200.476,0,0,1-102.31-27.972l-7.292-4.354L58.121,432.5l20.244-74.121-4.789-7.619A200.168,200.168,0,0,1,42.883,243.877C42.883,133.186,133,43.065,243.8,43.065a199.048,199.048,0,0,1,141.929,58.883c37.877,37.985,61.169,88.379,61.06,142.037,0,110.8-92.406,200.92-203.1,200.92ZM353.842,294.488c-5.986-3.048-35.7-17.632-41.251-19.591-5.551-2.068-9.578-3.048-13.605,3.048s-15.564,19.591-19.156,23.727c-3.483,4.027-7.075,4.571-13.061,1.524C231.287,285.454,208,271.522,184.594,231.36c-6.2-10.666,6.2-9.9,17.741-32.979,1.959-4.027.98-7.51-.544-10.558s-13.605-32.761-18.612-44.842c-4.9-11.755-9.9-10.122-13.605-10.34-3.483-.218-7.51-.218-11.537-.218a22.365,22.365,0,0,0-16.108,7.51c-5.551,6.1-21.115,20.68-21.115,50.393s21.659,58.448,24.6,62.475c3.048,4.027,42.557,64.978,103.181,91.209,38.312,16.544,53.332,17.959,72.488,15.129,11.646-1.741,35.7-14.585,40.707-28.734s5.007-26.231,3.483-28.734C363.855,298.95,359.828,297.427,353.842,294.488Z" transform="translate(0 -2.25)" fill="#fff"/>
  </g>
</svg>
